<?xml version='1.0' encoding='utf-8'?>
<svg xmlns:ns0="http://www.w3.org/2000/svg" viewBox="0 0 24 24" xmlns="http://www.w3.org/2000/svg"><ns0:path d="M11.9998 15.677C11.8793 15.677 11.7671 15.6578 11.6633 15.6193C11.5594 15.5808 11.4607 15.5148 11.367 15.4213L6.87276 10.927C6.73442 10.7885 6.66359 10.6144 6.66026 10.4048C6.65709 10.1953 6.72792 10.018 6.87276 9.87301C7.01776 9.72818 7.19342 9.65576 7.39976 9.65576C7.60609 9.65576 7.78176 9.72818 7.92676 9.87301L11.9998 13.9463L16.0728 9.87301C16.2113 9.73468 16.3853 9.66385 16.595 9.66051C16.8045 9.65735 16.9818 9.72818 17.1268 9.87301C17.2716 10.018 17.344 10.1937 17.344 10.4C17.344 10.6063 17.2716 10.782 17.1268 10.927L12.6325 15.4213C12.5388 15.5148 12.4401 15.5808 12.3363 15.6193C12.2324 15.6578 12.1203 15.677 11.9998 15.677Z" fill="#6D7882" />
</svg>