<?xml version='1.0' encoding='utf-8'?>
<svg xmlns:ns0="http://www.w3.org/2000/svg" viewBox="0 0 24 24" xmlns="http://www.w3.org/2000/svg"><ns0:path d="M14.3204 12.2531L8.2417 6.14293C8.08139 5.98179 8.00331 5.78995 8.00748 5.56743C8.01165 5.3449 8.0939 5.153 8.25421 4.99172C8.41453 4.83057 8.60538 4.75 8.82675 4.75C9.04813 4.75 9.23905 4.83057 9.3995 4.99172L15.5774 11.2142C15.7232 11.3609 15.8313 11.5252 15.9016 11.7072C15.9721 11.8891 16.0073 12.0711 16.0073 12.2531C16.0073 12.435 15.9721 12.617 15.9016 12.799C15.8313 12.9809 15.7232 13.1453 15.5774 13.2919L9.38699 19.5144C9.22667 19.6756 9.03791 19.754 8.8207 19.7498C8.60336 19.7456 8.41453 19.663 8.25421 19.5018C8.0939 19.3407 8.01374 19.1489 8.01374 18.9263C8.01374 18.7038 8.0939 18.5119 8.25421 18.3506L14.3204 12.2531Z" fill="#6D7882" />
</svg>