<?xml version='1.0' encoding='utf-8'?>
<svg xmlns:ns0="http://www.w3.org/2000/svg" viewBox="0 0 24 24" xmlns="http://www.w3.org/2000/svg"><ns0:path d="M8.68552 12.2608L14.7597 18.376C14.9199 18.5373 14.998 18.7272 14.994 18.9457C14.9898 19.1644 14.9076 19.3544 14.7474 19.5156C14.5871 19.6769 14.3984 19.7576 14.1813 19.7576C13.9643 19.7576 13.7756 19.6769 13.6153 19.5156L7.42959 13.3005C7.28378 13.1537 7.17572 12.9893 7.10543 12.8071C7.03514 12.625 7 12.4429 7 12.2608C7 12.0787 7.03514 11.8966 7.10543 11.7144C7.17572 11.5323 7.28378 11.3679 7.42959 11.2211L13.6153 4.99336C13.7756 4.83208 13.9664 4.75353 14.1876 4.75773C14.4088 4.76192 14.5995 4.84466 14.7597 5.00594C14.9199 5.16722 15 5.35719 15 5.57584C15 5.79436 14.9199 5.98426 14.7597 6.14554L8.68552 12.2608Z" fill="#6D7882" />
</svg>