<?xml version='1.0' encoding='utf-8'?>
<svg xmlns:ns0="http://www.w3.org/2000/svg" viewBox="0 0 24 24" xmlns="http://www.w3.org/2000/svg"><ns0:path d="M12 9.45376L7.92701 13.527C7.78851 13.6653 7.61443 13.7362 7.40476 13.7395C7.19526 13.7427 7.01801 13.6718 6.87301 13.527C6.72818 13.382 6.65576 13.2063 6.65576 13C6.65576 12.7937 6.72818 12.618 6.87301 12.473L11.3673 7.97876C11.5481 7.7981 11.759 7.70776 12 7.70776C12.241 7.70776 12.4519 7.7981 12.6328 7.97876L17.127 12.473C17.2653 12.6115 17.3362 12.7856 17.3395 12.9953C17.3427 13.2048 17.2718 13.382 17.127 13.527C16.982 13.6718 16.8063 13.7443 16.6 13.7443C16.3937 13.7443 16.218 13.6718 16.073 13.527L12 9.45376Z" fill="#6D7882" />
</svg>