<svg width="24" height="24" viewBox="0 0 24 24" fill="none" xmlns="http://www.w3.org/2000/svg">
<path d="M10.67 13.71L8.6275 11.6675C8.45333 11.4933 8.23167 11.4062 7.9625 11.4062C7.69333 11.4062 7.47167 11.4933 7.2975 11.6675C7.12333 11.8417 7.03625 12.0633 7.03625 12.3325C7.03625 12.6017 7.12333 12.8233 7.2975 12.9975L10.005 15.705C10.195 15.895 10.4167 15.99 10.67 15.99C10.9233 15.99 11.145 15.895 11.335 15.705L16.7025 10.3375C16.8767 10.1633 16.9637 9.94167 16.9637 9.6725C16.9637 9.40333 16.8767 9.18167 16.7025 9.0075C16.5283 8.83333 16.3067 8.74625 16.0375 8.74625C15.7683 8.74625 15.5467 8.83333 15.3725 9.0075L10.67 13.71ZM12 21.5C10.6858 21.5 9.45083 21.2506 8.295 20.7519C7.13917 20.2531 6.13375 19.5763 5.27875 18.7213C4.42375 17.8663 3.74688 16.8608 3.24813 15.705C2.74937 14.5492 2.5 13.3142 2.5 12C2.5 10.6858 2.74937 9.45083 3.24813 8.295C3.74688 7.13917 4.42375 6.13375 5.27875 5.27875C6.13375 4.42375 7.13917 3.74688 8.295 3.24813C9.45083 2.74937 10.6858 2.5 12 2.5C13.3142 2.5 14.5492 2.74937 15.705 3.24813C16.8608 3.74688 17.8663 4.42375 18.7213 5.27875C19.5763 6.13375 20.2531 7.13917 20.7519 8.295C21.2506 9.45083 21.5 10.6858 21.5 12C21.5 13.3142 21.2506 14.5492 20.7519 15.705C20.2531 16.8608 19.5763 17.8663 18.7213 18.7213C17.8663 19.5763 16.8608 20.2531 15.705 20.7519C14.5492 21.2506 13.3142 21.5 12 21.5Z" fill="#6D7882"/>
</svg>
