<svg width="14" height="14" viewBox="0 0 14 14" fill="none" xmlns="http://www.w3.org/2000/svg">
<path d="M5.57106 9.0506L10.6102 4.01147C10.6969 3.92465 10.7984 3.88032 10.9147 3.87847C11.031 3.87663 11.1344 3.92096 11.2249 4.01147C11.3154 4.10199 11.3606 4.20592 11.3606 4.32327C11.3606 4.44071 11.3154 4.54469 11.2249 4.6352L5.94017 9.92895C5.83468 10.0343 5.71164 10.087 5.57106 10.087C5.43048 10.087 5.30744 10.0343 5.20196 9.92895L2.76654 7.49354C2.67982 7.40672 2.63704 7.30366 2.63821 7.18437C2.63928 7.06517 2.68507 6.96032 2.77558 6.86981C2.8661 6.77929 2.97003 6.73404 3.08737 6.73404C3.20482 6.73404 3.3088 6.77929 3.39931 6.86981L5.57106 9.0506Z" fill="#DEE0E3"/>
</svg>
