<?xml version='1.0' encoding='utf-8'?>
<svg xmlns:ns0="http://www.w3.org/2000/svg" viewBox="0 0 24 24" xmlns="http://www.w3.org/2000/svg"><ns0:path d="M7.59439 12L11.6521 16.073C11.7905 16.2115 11.8638 16.383 11.8721 16.5875C11.8805 16.792 11.8071 16.9718 11.6521 17.127C11.5071 17.2718 11.3315 17.3442 11.1251 17.3442C10.9188 17.3442 10.7431 17.2718 10.5981 17.127L6.10414 12.6327C6.01048 12.5391 5.94439 12.4403 5.90589 12.3365C5.86739 12.2326 5.84814 12.1205 5.84814 12C5.84814 11.8795 5.86739 11.7673 5.90589 11.6635C5.94439 11.5596 6.01048 11.4609 6.10414 11.3672L10.5981 6.87298C10.7366 6.73465 10.9081 6.66131 11.1126 6.65298C11.3171 6.64465 11.497 6.71798 11.6521 6.87298C11.797 7.01798 11.8694 7.19365 11.8694 7.39998C11.8694 7.60632 11.797 7.78198 11.6521 7.92698L7.59439 12ZM13.9444 12L18.0021 16.073C18.1405 16.2115 18.2138 16.383 18.2221 16.5875C18.2305 16.792 18.1571 16.9718 18.0021 17.127C17.8571 17.2718 17.6815 17.3442 17.4751 17.3442C17.2688 17.3442 17.0931 17.2718 16.9481 17.127L12.4539 12.6327C12.3604 12.5391 12.2944 12.4403 12.2559 12.3365C12.2174 12.2326 12.1981 12.1205 12.1981 12C12.1981 11.8795 12.2174 11.7673 12.2559 11.6635C12.2944 11.5596 12.3604 11.4609 12.4539 11.3672L16.9481 6.87298C17.0866 6.73465 17.2581 6.66131 17.4626 6.65298C17.6671 6.64465 17.847 6.71798 18.0021 6.87298C18.147 7.01798 18.2194 7.19365 18.2194 7.39998C18.2194 7.60632 18.147 7.78198 18.0021 7.92698L13.9444 12Z" fill="#6D7882" />
</svg>