<?xml version='1.0' encoding='utf-8'?>
<svg xmlns:ns0="http://www.w3.org/2000/svg" viewBox="0 0 24 24" xmlns="http://www.w3.org/2000/svg"><ns0:path d="M12.5 16.2308C12.7288 16.2308 12.9207 16.1533 13.0755 15.9985C13.2303 15.8437 13.3077 15.6518 13.3077 15.423C13.3077 15.1942 13.2303 15.0023 13.0755 14.8475C12.9207 14.6928 12.7288 14.6155 12.5 14.6155C12.2712 14.6155 12.0793 14.6928 11.9245 14.8475C11.7697 15.0023 11.6923 15.1942 11.6923 15.423C11.6923 15.6518 11.7697 15.8437 11.9245 15.9985C12.0793 16.1533 12.2712 16.2308 12.5 16.2308ZM12.5003 12.577C12.7129 12.577 12.891 12.5051 13.0345 12.3613C13.1782 12.2176 13.25 12.0395 13.25 11.827V7.327C13.25 7.1145 13.1781 6.93633 13.0343 6.7925C12.8904 6.64883 12.7123 6.577 12.4998 6.577C12.2871 6.577 12.109 6.64883 11.9655 6.7925C11.8218 6.93633 11.75 7.1145 11.75 7.327V11.827C11.75 12.0395 11.8219 12.2176 11.9658 12.3613C12.1096 12.5051 12.2878 12.577 12.5003 12.577ZM12.5017 21C11.1877 21 9.95267 20.7507 8.7965 20.252C7.64033 19.7533 6.63467 19.0766 5.7795 18.2218C4.92433 17.3669 4.24725 16.3617 3.74825 15.206C3.24942 14.0503 3 12.8156 3 11.5017C3 10.1877 3.24933 8.95267 3.748 7.7965C4.24667 6.64033 4.92342 5.63467 5.77825 4.7795C6.63308 3.92433 7.63833 3.24725 8.794 2.74825C9.94967 2.24942 11.1844 2 12.4983 2C13.8123 2 15.0473 2.24933 16.2035 2.748C17.3597 3.24667 18.3653 3.92342 19.2205 4.77825C20.0757 5.63308 20.7528 6.63833 21.2518 7.794C21.7506 8.94967 22 10.1844 22 11.4983C22 12.8123 21.7507 14.0473 21.252 15.2035C20.7533 16.3597 20.0766 17.3653 19.2218 18.2205C18.3669 19.0757 17.3617 19.7528 16.206 20.2518C15.0503 20.7506 13.8156 21 12.5017 21ZM12.5 19.5C14.7333 19.5 16.625 18.725 18.175 17.175C19.725 15.625 20.5 13.7333 20.5 11.5C20.5 9.26667 19.725 7.375 18.175 5.825C16.625 4.275 14.7333 3.5 12.5 3.5C10.2667 3.5 8.375 4.275 6.825 5.825C5.275 7.375 4.5 9.26667 4.5 11.5C4.5 13.7333 5.275 15.625 6.825 17.175C8.375 18.725 10.2667 19.5 12.5 19.5Z" fill="#6D7882" />
</svg>