<?xml version='1.0' encoding='utf-8'?>
<svg xmlns:ns0="http://www.w3.org/2000/svg" viewBox="0 0 24 24" xmlns="http://www.w3.org/2000/svg"><ns0:path d="M4 18V6V11.6172V11.1538V18ZM4.30775 19.5C3.80258 19.5 3.375 19.325 3.025 18.975C2.675 18.625 2.5 18.1974 2.5 17.6923V6.30775C2.5 5.80258 2.675 5.375 3.025 5.025C3.375 4.675 3.80258 4.5 4.30775 4.5H9.05C9.291 4.5 9.52275 4.54683 9.74525 4.6405C9.96758 4.734 10.1608 4.86283 10.325 5.027L11.798 6.5H19.6923C20.1974 6.5 20.625 6.675 20.975 7.025C21.325 7.375 21.5 7.80258 21.5 8.30775V11.2365C21.5 11.4493 21.4282 11.6276 21.2845 11.7712C21.141 11.9148 20.9628 11.9865 20.75 11.9865C20.5372 11.9865 20.359 11.9148 20.2155 11.7712C20.0718 11.6276 20 11.4493 20 11.2365V8.30775C20 8.21792 19.9712 8.14417 19.9135 8.0865C19.8558 8.02883 19.7821 8 19.6923 8H11.9327C11.6918 8 11.46 7.95317 11.2375 7.8595C11.015 7.766 10.8217 7.63717 10.6578 7.473L9.27125 6.0865C9.23908 6.0545 9.20542 6.03208 9.17025 6.01925C9.13492 6.00642 9.098 6 9.0595 6H4.30775C4.21792 6 4.14417 6.02883 4.0865 6.0865C4.02883 6.14417 4 6.21792 4 6.30775V17.6923C4 17.7821 4.02883 17.8558 4.0865 17.9135C4.14417 17.9712 4.21792 18 4.30775 18H10.323C10.5358 18 10.7141 18.0718 10.8577 18.2155C11.0013 18.359 11.073 18.5372 11.073 18.75C11.073 18.9628 11.0013 19.141 10.8577 19.2845C10.7141 19.4282 10.5358 19.5 10.323 19.5H4.30775Z" fill="#6D7882" />
<ns0:path d="M16.6563 18.1439H13.9441C13.7375 18.1439 13.5619 18.0716 13.4172 17.9269C13.2725 17.7823 13.2002 17.6067 13.2002 17.4C13.2002 17.1932 13.2725 17.0176 13.4172 16.873C13.5619 16.7284 13.7375 16.656 13.9441 16.656H16.6563V13.9439C16.6563 13.7373 16.7286 13.5616 16.8733 13.417C17.0178 13.2723 17.1935 13.2 17.4002 13.2C17.6069 13.2 17.7825 13.2723 17.9271 13.417C18.0718 13.5616 18.1441 13.7373 18.1441 13.9439V16.656H20.8563C21.0629 16.656 21.2385 16.7284 21.3832 16.873C21.5279 17.0176 21.6002 17.1932 21.6002 17.4C21.6002 17.6067 21.5279 17.7823 21.3832 17.9269C21.2385 18.0716 21.0629 18.1439 20.8563 18.1439H18.1441V20.856C18.1441 21.0626 18.0718 21.2383 17.9271 21.3829C17.7825 21.5276 17.6069 21.6 17.4002 21.6C17.1935 21.6 17.0178 21.5276 16.8733 21.3829C16.7286 21.2383 16.6563 21.0626 16.6563 20.856V18.1439Z" fill="#6D7882" />
</svg>