<?xml version='1.0' encoding='utf-8'?>
<svg xmlns:ns0="http://www.w3.org/2000/svg" viewBox="0 0 24 24" xmlns="http://www.w3.org/2000/svg"><ns0:path d="M12 21.5C10.8205 21.5 9.71542 21.2769 8.68475 20.8308C7.65392 20.3846 6.75517 19.7782 5.9885 19.0115C5.22183 18.2449 4.61542 17.3461 4.16925 16.3153C3.72308 15.2846 3.5 14.1795 3.5 13C3.5 11.8205 3.72308 10.7154 4.16925 9.68478C4.61542 8.65395 5.22183 7.7552 5.9885 6.98853C6.75517 6.22186 7.65392 5.61545 8.68475 5.16928C9.71542 4.72312 10.8205 4.50003 12 4.50003H12.2655L11.1845 3.41928C11.0397 3.27445 10.9673 3.10136 10.9673 2.90003C10.9673 2.6987 11.0397 2.52053 11.1845 2.36553C11.3333 2.2167 11.51 2.13978 11.7145 2.13478C11.9188 2.12962 12.0986 2.20136 12.2537 2.35003L14.521 4.60778C14.6915 4.77828 14.7768 4.9892 14.7768 5.24053C14.7768 5.4917 14.6915 5.70253 14.521 5.87303L12.273 8.13078C12.1243 8.28595 11.9478 8.36095 11.7433 8.35578C11.5388 8.35061 11.3589 8.27045 11.2038 8.11528C11.0589 7.96028 10.9865 7.78211 10.9865 7.58078C10.9865 7.37945 11.0589 7.20637 11.2038 7.06153L12.2655 6.00003H12C10.05 6.00003 8.39583 6.6792 7.0375 8.03753C5.67917 9.39586 5 11.05 5 13C5 14.95 5.67917 16.6042 7.0375 17.9625C8.39583 19.3209 10.05 20 12 20C13.8052 20 15.3693 19.401 16.6923 18.203C18.0154 17.0049 18.7712 15.5084 18.9595 13.7135C18.9865 13.5109 19.0743 13.3413 19.223 13.2048C19.3718 13.0683 19.5475 13 19.75 13C19.9525 13 20.1282 13.0657 20.277 13.197C20.4257 13.3285 20.4898 13.4904 20.4693 13.6828C20.2871 15.9033 19.3877 17.7613 17.7712 19.2568C16.1546 20.7523 14.2308 21.5 12 21.5Z" fill="#6D7882" />
</svg>