<?xml version='1.0' encoding='utf-8'?>
<svg xmlns:ns0="http://www.w3.org/2000/svg" viewBox="0 0 24 24" xmlns="http://www.w3.org/2000/svg"><ns0:path d="M19.2963 8.5321L15.0344 14.3495L15.3718 16.5374C15.3879 16.6413 15.3834 16.7418 15.3586 16.8388C15.3337 16.9357 15.292 17.0241 15.2334 17.1041L14.9807 17.449C14.8562 17.6189 14.6918 17.7201 14.4875 17.7524C14.2834 17.7849 14.0945 17.7375 13.9208 17.6102L10.8725 15.377L7.68798 19.7238C7.56239 19.8952 7.39913 19.9964 7.1982 20.0273C6.99726 20.0582 6.81109 20.0108 6.63967 19.8852C6.46812 19.7595 6.36691 19.5963 6.33606 19.3956C6.30507 19.1949 6.35237 19.0087 6.47796 18.8373L9.6625 14.4905L6.61426 12.2573C6.44056 12.1301 6.33841 11.9642 6.30781 11.7598C6.27708 11.5553 6.32397 11.368 6.44847 11.1981L6.70112 10.8532C6.75973 10.7732 6.83145 10.7068 6.9163 10.6538C7.00138 10.6009 7.09586 10.5664 7.19976 10.5504L9.3876 10.2125L13.6495 4.39518L13.4479 4.24743C13.2764 4.12184 13.1753 3.95859 13.1444 3.75765C13.1134 3.55662 13.1606 3.3704 13.2862 3.19898C13.4119 3.02742 13.5752 2.92627 13.776 2.89551C13.9768 2.86453 14.1629 2.91183 14.3343 3.03741L20.3844 7.46983C20.5559 7.59542 20.657 7.75868 20.6879 7.95961C20.7189 8.16064 20.6716 8.34687 20.5461 8.51829C20.4204 8.68984 20.2571 8.79099 20.0563 8.82175C19.8555 8.85274 19.6694 8.80544 19.4979 8.67985L19.2963 8.5321Z" fill="#6D7882" />
</svg>