<?xml version='1.0' encoding='utf-8'?>
<svg xmlns:ns0="http://www.w3.org/2000/svg" viewBox="0 0 24 24" xmlns="http://www.w3.org/2000/svg"><ns0:path d="M19.2969 8.53216L15.0347 14.3493L15.3721 16.5372C15.3881 16.6411 15.3837 16.7416 15.3589 16.8387C15.334 16.9356 15.2922 17.024 15.2336 17.104L14.981 17.4488C14.8565 17.6187 14.6921 17.7199 14.4878 17.7522C14.2836 17.7847 14.0947 17.7373 13.921 17.61L10.8729 15.3767L7.68811 19.7233C7.56251 19.8947 7.39925 19.9959 7.19832 20.0267C6.99738 20.0576 6.81121 20.0103 6.63979 19.8847C6.46825 19.759 6.36705 19.5958 6.33621 19.3951C6.30523 19.1943 6.35254 19.0082 6.47813 18.8368L9.66289 14.4901L6.61475 12.2568C6.44106 12.1295 6.33891 11.9637 6.30833 11.7592C6.27761 11.5547 6.3245 11.3674 6.44901 11.1975L6.70168 10.8527C6.76029 10.7727 6.83202 10.7062 6.91687 10.6533C7.00195 10.6003 7.09643 10.5659 7.20033 10.5498L9.38819 10.2121L13.6504 4.39496L13.4487 4.2472C13.2773 4.12161 13.1762 3.95835 13.1453 3.75741C13.1143 3.55638 13.1616 3.37016 13.2872 3.19874C13.4129 3.02719 13.5761 2.92605 13.777 2.8953C13.9778 2.86433 14.1639 2.91163 14.3353 3.03723L20.3852 7.46994C20.5566 7.59553 20.6577 7.75879 20.6886 7.95973C20.7196 8.16076 20.6723 8.34699 20.5467 8.5184C20.421 8.68995 20.2578 8.79109 20.0569 8.82184C19.8561 8.85282 19.67 8.80551 19.4986 8.67991L19.2969 8.53216ZM8.61347 11.8617L13.6954 15.5852L13.4474 13.9778L18.087 7.64561L14.8604 5.2815L10.2208 11.6137L8.61347 11.8617Z" fill="#6D7882" />
</svg>