<?xml version='1.0' encoding='utf-8'?>
<svg xmlns:ns0="http://www.w3.org/2000/svg" viewBox="0 0 24 24" xmlns="http://www.w3.org/2000/svg"><ns0:path d="M10.75 13.75H12.9905C13.2032 13.75 13.3813 13.6782 13.525 13.5345C13.6685 13.391 13.7402 13.2128 13.7402 13C13.7402 12.7872 13.6685 12.609 13.525 12.4655C13.3813 12.3218 13.2032 12.25 12.9905 12.25H10.75C10.5372 12.25 10.359 12.3218 10.2155 12.4655C10.0718 12.609 10 12.7872 10 13C10 13.2128 10.0718 13.391 10.2155 13.5345C10.359 13.6782 10.5372 13.75 10.75 13.75ZM10.75 10.75H16.7308C16.9436 10.75 17.1217 10.6782 17.2653 10.5345C17.4089 10.391 17.4808 10.2128 17.4808 10C17.4808 9.78717 17.4089 9.609 17.2653 9.4655C17.1217 9.32183 16.9436 9.25 16.7308 9.25H10.75C10.5372 9.25 10.359 9.32183 10.2155 9.4655C10.0718 9.609 10 9.78717 10 10C10 10.2128 10.0718 10.391 10.2155 10.5345C10.359 10.6782 10.5372 10.75 10.75 10.75ZM10.75 7.75H16.7308C16.9436 7.75 17.1217 7.67817 17.2653 7.5345C17.4089 7.391 17.4808 7.21283 17.4808 7C17.4808 6.78717 17.4089 6.609 17.2653 6.4655C17.1217 6.32183 16.9436 6.25 16.7308 6.25H10.75C10.5372 6.25 10.359 6.32183 10.2155 6.4655C10.0718 6.609 10 6.78717 10 7C10 7.21283 10.0718 7.391 10.2155 7.5345C10.359 7.67817 10.5372 7.75 10.75 7.75ZM8.05775 17.5C7.55258 17.5 7.125 17.325 6.775 16.975C6.425 16.625 6.25 16.1974 6.25 15.6923V4.30775C6.25 3.80258 6.425 3.375 6.775 3.025C7.125 2.675 7.55258 2.5 8.05775 2.5H19.4423C19.9474 2.5 20.375 2.675 20.725 3.025C21.075 3.375 21.25 3.80258 21.25 4.30775V15.6923C21.25 16.1974 21.075 16.625 20.725 16.975C20.375 17.325 19.9474 17.5 19.4423 17.5H8.05775ZM8.05775 16H19.4423C19.5193 16 19.5898 15.9679 19.6538 15.9038C19.7179 15.8398 19.75 15.7692 19.75 15.6923V4.30775C19.75 4.23075 19.7179 4.16025 19.6538 4.09625C19.5898 4.03208 19.5193 4 19.4423 4H8.05775C7.98075 4 7.91025 4.03208 7.84625 4.09625C7.78208 4.16025 7.75 4.23075 7.75 4.30775V15.6923C7.75 15.7692 7.78208 15.8398 7.84625 15.9038C7.91025 15.9679 7.98075 16 8.05775 16ZM4.55775 21C4.05258 21 3.625 20.825 3.275 20.475C2.925 20.125 2.75 19.6974 2.75 19.1923V7.05775C2.75 6.84492 2.82183 6.66667 2.9655 6.523C3.109 6.3795 3.28717 6.30775 3.5 6.30775C3.71283 6.30775 3.89108 6.3795 4.03475 6.523C4.17825 6.66667 4.25 6.84492 4.25 7.05775V19.1923C4.25 19.2693 4.28208 19.3398 4.34625 19.4038C4.41025 19.4679 4.48075 19.5 4.55775 19.5H16.6923C16.9051 19.5 17.0833 19.5718 17.227 19.7153C17.3705 19.8589 17.4423 20.0372 17.4423 20.25C17.4423 20.4628 17.3705 20.641 17.227 20.7845C17.0833 20.9282 16.9051 21 16.6923 21H4.55775Z" fill="#6D7882" />
</svg>