<?xml version='1.0' encoding='utf-8'?>
<svg xmlns:ns0="http://www.w3.org/2000/svg" viewBox="0 0 24 24" xmlns="http://www.w3.org/2000/svg"><ns0:path d="M12.0005 13.4558C11.853 13.4558 11.7097 13.4366 11.5707 13.3981C11.4315 13.3596 11.2934 13.3051 11.1562 13.2346L2.9947 8.89432C2.83054 8.80066 2.71262 8.68524 2.64095 8.54807C2.56912 8.4109 2.5332 8.26032 2.5332 8.09632C2.5332 7.93215 2.56912 7.78149 2.64095 7.64432C2.71262 7.50716 2.83054 7.39174 2.9947 7.29807L11.1562 2.95782C11.2934 2.88732 11.4315 2.83282 11.5707 2.79432C11.7097 2.75582 11.853 2.73657 12.0005 2.73657C12.148 2.73657 12.2912 2.75582 12.4302 2.79432C12.5694 2.83282 12.7075 2.88732 12.8447 2.95782L21.0157 7.29807C21.1799 7.39174 21.2979 7.50716 21.3697 7.64432C21.4415 7.78149 21.4775 7.93215 21.4775 8.09632C21.4775 8.26032 21.4415 8.4109 21.3697 8.54807C21.2979 8.68524 21.1799 8.80066 21.0157 8.89432L12.8447 13.2346C12.7075 13.3051 12.5694 13.3596 12.4302 13.3981C12.2912 13.4366 12.148 13.4558 12.0005 13.4558ZM12.0005 11.9848L19.3735 8.09632L12.0005 4.20782L4.63695 8.09632L12.0005 11.9848ZM12.0005 15.8886L20.0042 11.6521C20.044 11.6289 20.18 11.6065 20.412 11.5848C20.612 11.5975 20.7757 11.6725 20.9032 11.8098C21.0309 11.947 21.0947 12.1156 21.0947 12.3156C21.0947 12.4539 21.0642 12.5788 21.0032 12.6903C20.9424 12.802 20.8427 12.895 20.7042 12.9693L12.8447 17.1386C12.7075 17.2091 12.5694 17.2636 12.4302 17.3021C12.2912 17.3404 12.148 17.3596 12.0005 17.3596C11.853 17.3596 11.7097 17.3404 11.5707 17.3021C11.4315 17.2636 11.2934 17.2091 11.1562 17.1386L3.3062 12.9693C3.1677 12.895 3.06645 12.802 3.00245 12.6903C2.93829 12.5788 2.9062 12.4539 2.9062 12.3156C2.9062 12.1156 2.97162 11.947 3.10245 11.8098C3.23312 11.6725 3.39845 11.5975 3.59845 11.5848C3.66895 11.572 3.73695 11.5717 3.80245 11.5838C3.86779 11.596 3.9357 11.6187 4.0062 11.6521L12.0005 15.8886ZM12.0005 19.7923L20.0042 15.5558C20.044 15.5328 20.18 15.5104 20.412 15.4886C20.612 15.5014 20.7757 15.5764 20.9032 15.7136C21.0309 15.8507 21.0947 16.0193 21.0947 16.2193C21.0947 16.3578 21.0642 16.4828 21.0032 16.5943C20.9424 16.7058 20.8427 16.7987 20.7042 16.8731L12.8447 21.0423C12.7075 21.1128 12.5694 21.1673 12.4302 21.2058C12.2912 21.2443 12.148 21.2636 12.0005 21.2636C11.853 21.2636 11.7097 21.2443 11.5707 21.2058C11.4315 21.1673 11.2934 21.1128 11.1562 21.0423L3.3062 16.8731C3.1677 16.7987 3.06645 16.7058 3.00245 16.5943C2.93829 16.4828 2.9062 16.3578 2.9062 16.2193C2.9062 16.0193 2.97162 15.8507 3.10245 15.7136C3.23312 15.5764 3.39845 15.5014 3.59845 15.4886C3.66895 15.4757 3.73695 15.4754 3.80245 15.4876C3.86779 15.4997 3.9357 15.5225 4.0062 15.5558L12.0005 19.7923Z" fill="#6D7882" />
</svg>