<?xml version='1.0' encoding='utf-8'?>
<svg xmlns:ns0="http://www.w3.org/2000/svg" viewBox="0 0 24 24" xmlns="http://www.w3.org/2000/svg"><ns0:path d="M3.25 20.5C3.03717 20.5 2.859 20.4282 2.7155 20.2845C2.57183 20.141 2.5 19.9628 2.5 19.75C2.5 19.5372 2.57183 19.359 2.7155 19.2155C2.859 19.0718 3.03717 19 3.25 19H11.25V7.88275C10.7975 7.76475 10.4017 7.541 10.0625 7.2115C9.72333 6.882 9.49158 6.47817 9.36725 6H6.05775L8.77875 12.5942C8.85575 12.7647 8.89933 12.9394 8.9095 13.1183C8.91983 13.2971 8.90833 13.4769 8.875 13.6578C8.725 14.3474 8.33492 14.8782 7.70475 15.25C7.07475 15.6218 6.42317 15.8077 5.75 15.8077C5.077 15.8077 4.42542 15.6218 3.79525 15.25C3.16508 14.8782 2.775 14.3474 2.625 13.6578C2.59167 13.4769 2.58017 13.2971 2.5905 13.1183C2.60067 12.9394 2.64425 12.7647 2.72125 12.5942L5.44225 6H4.25C4.03717 6 3.859 5.92817 3.7155 5.7845C3.57183 5.641 3.5 5.46283 3.5 5.25C3.5 5.03717 3.57183 4.859 3.7155 4.7155C3.859 4.57183 4.03717 4.5 4.25 4.5H9.36725C9.52242 3.9295 9.84067 3.45358 10.322 3.07225C10.8035 2.69075 11.3628 2.5 12 2.5C12.6372 2.5 13.1965 2.69075 13.678 3.07225C14.1593 3.45358 14.4776 3.9295 14.6328 4.5H19.75C19.9628 4.5 20.141 4.57183 20.2845 4.7155C20.4282 4.859 20.5 5.03717 20.5 5.25C20.5 5.46283 20.4282 5.641 20.2845 5.7845C20.141 5.92817 19.9628 6 19.75 6H18.5578L21.2788 12.5942C21.3558 12.7647 21.3993 12.9394 21.4095 13.1183C21.4198 13.2971 21.4083 13.4769 21.375 13.6578C21.225 14.3474 20.8349 14.8782 20.2048 15.25C19.5746 15.6218 18.923 15.8077 18.25 15.8077C17.5768 15.8077 16.9253 15.6218 16.2952 15.25C15.6651 14.8782 15.275 14.3474 15.125 13.6578C15.0917 13.4769 15.0802 13.2971 15.0905 13.1183C15.1007 12.9394 15.1442 12.7647 15.2212 12.5942L17.9423 6H14.6328C14.5084 6.47817 14.2767 6.882 13.9375 7.2115C13.5983 7.541 13.2025 7.76475 12.75 7.88275V19H20.75C20.9628 19 21.141 19.0718 21.2845 19.2155C21.4282 19.359 21.5 19.5372 21.5 19.75C21.5 19.9628 21.4282 20.141 21.2845 20.2845C21.141 20.4282 20.9628 20.5 20.75 20.5H3.25ZM16.3077 13.0577H20.1923L18.25 8.37125L16.3077 13.0577ZM3.80775 13.0577H7.69225L5.75 8.37125L3.80775 13.0577ZM12 6.5C12.3475 6.5 12.6427 6.3785 12.8855 6.1355C13.1285 5.89267 13.25 5.5975 13.25 5.25C13.25 4.9025 13.1285 4.60733 12.8855 4.3645C12.6427 4.1215 12.3475 4 12 4C11.6525 4 11.3573 4.1215 11.1145 4.3645C10.8715 4.60733 10.75 4.9025 10.75 5.25C10.75 5.5975 10.8715 5.89267 11.1145 6.1355C11.3573 6.3785 11.6525 6.5 12 6.5Z" fill="#6D7882" />
</svg>