<?xml version='1.0' encoding='utf-8'?>
<svg xmlns:ns0="http://www.w3.org/2000/svg" viewBox="0 0 24 24" xmlns="http://www.w3.org/2000/svg"><ns0:path d="M10.3772 13.6037L4.63295 11.277C4.43545 11.2 4.29311 11.0826 4.20595 10.9247C4.11878 10.7671 4.0752 10.6056 4.0752 10.4402C4.0752 10.2749 4.12295 10.1127 4.21845 9.95373C4.31395 9.79489 4.46045 9.67698 4.65795 9.59998L18.3479 4.47398C18.5263 4.39898 18.6991 4.38431 18.8664 4.42998C19.0338 4.47564 19.1783 4.55931 19.2999 4.68098C19.4216 4.80264 19.5053 4.94714 19.5509 5.11448C19.5966 5.28181 19.5818 5.45456 19.5064 5.63273L14.3604 19.3167C14.2853 19.5097 14.1687 19.6546 14.0107 19.7512C13.8527 19.8477 13.6909 19.896 13.5254 19.896C13.3599 19.896 13.1974 19.8506 13.0379 19.76C12.8784 19.6691 12.7607 19.5254 12.6847 19.3287L10.3772 13.6037Z" fill="#6D7882" />
</svg>