<?xml version='1.0' encoding='utf-8'?>
<svg xmlns:ns0="http://www.w3.org/2000/svg" viewBox="0 0 24 24" xmlns="http://www.w3.org/2000/svg"><ns0:path d="M15.8077 20C15.8974 20 15.9711 19.9712 16.0288 19.9135C16.0866 19.8558 16.1155 19.7821 16.1155 19.6923V11.1155C16.1155 11.0257 16.0866 10.9519 16.0288 10.8943C15.9711 10.8366 15.8974 10.8077 15.8077 10.8077H4.30775C4.21792 10.8077 4.14417 10.8366 4.0865 10.8943C4.02883 10.9519 4 11.0257 4 11.1155V19.6923C4 19.7821 4.02883 19.8558 4.0865 19.9135C4.14417 19.9712 4.21792 20 4.30775 20H15.8077ZM17.6152 14.6923V13.1923H19.6923C19.7821 13.1923 19.8558 13.1634 19.9135 13.1058C19.9712 13.0481 20 12.9743 20 12.8845V4.30775C20 4.21792 19.9712 4.14417 19.9135 4.0865C19.8558 4.02883 19.7821 4 19.6923 4H8.19225C8.10258 4 8.02892 4.02883 7.97125 4.0865C7.91342 4.14417 7.8845 4.21792 7.8845 4.30775V9.30775H6.38475V4.30775C6.38475 3.80258 6.55975 3.375 6.90975 3.025C7.25975 2.675 7.68725 2.5 8.19225 2.5H19.6923C20.1974 2.5 20.625 2.675 20.975 3.025C21.325 3.375 21.5 3.80258 21.5 4.30775V12.8845C21.5 13.3897 21.325 13.8173 20.975 14.1673C20.625 14.5173 20.1974 14.6923 19.6923 14.6923H17.6152ZM4.30775 21.5C3.80258 21.5 3.375 21.325 3.025 20.975C2.675 20.625 2.5 20.1974 2.5 19.6923V11.1155C2.5 10.6103 2.675 10.1827 3.025 9.83275C3.375 9.48275 3.80258 9.30775 4.30775 9.30775H15.8845C16.364 9.30775 16.7723 9.47625 17.1095 9.81325C17.4467 10.1504 17.6152 10.5556 17.6152 11.0288V19.6923C17.6152 20.1974 17.4403 20.625 17.0903 20.975C16.7402 21.325 16.3127 21.5 15.8077 21.5H4.30775Z" fill="#6D7882" />
</svg>