<?xml version='1.0' encoding='utf-8'?>
<svg xmlns:ns0="http://www.w3.org/2000/svg" viewBox="0 0 24 24" xmlns="http://www.w3.org/2000/svg"><ns0:path d="M10.8918 21.5C10.5508 21.5 10.2563 21.3868 10.0083 21.1605C9.76009 20.9343 9.60909 20.6558 9.55526 20.325L9.31101 18.4538C9.04317 18.3641 8.76851 18.2385 8.48701 18.077C8.20567 17.9153 7.95409 17.7422 7.73226 17.5577L5.99951 18.2943C5.68534 18.4328 5.36967 18.4462 5.05251 18.3345C4.73517 18.223 4.48867 18.0205 4.31301 17.727L3.18601 15.773C3.01034 15.4795 2.95976 15.1689 3.03426 14.8413C3.10859 14.5138 3.27909 14.2436 3.54576 14.0308L5.04376 12.9058C5.02076 12.7571 5.00442 12.6077 4.99476 12.4578C4.98509 12.3078 4.98026 12.1583 4.98026 12.0095C4.98026 11.8673 4.98509 11.7228 4.99476 11.576C5.00442 11.4292 5.02076 11.2686 5.04376 11.0943L3.54576 9.96925C3.27909 9.75642 3.11017 9.48458 3.03901 9.15375C2.96784 8.82308 3.02009 8.51092 3.19576 8.21725L4.31301 6.29225C4.48867 6.00508 4.73517 5.80417 5.05251 5.6895C5.36967 5.57467 5.68534 5.5865 5.99951 5.725L7.72251 6.452C7.96367 6.261 8.22109 6.08633 8.49476 5.928C8.76842 5.76967 9.03734 5.64242 9.30151 5.54625L9.55526 3.675C9.60909 3.34417 9.76009 3.06567 10.0083 2.8395C10.2563 2.61317 10.5508 2.5 10.8918 2.5H13.1073C13.4483 2.5 13.7428 2.61317 13.9908 2.8395C14.2389 3.06567 14.3899 3.34417 14.4438 3.675L14.688 5.55575C14.988 5.66475 15.2594 5.792 15.5023 5.9375C15.7453 6.083 15.9905 6.2545 16.238 6.452L18.0093 5.725C18.3233 5.5865 18.6389 5.57467 18.9563 5.6895C19.2736 5.80417 19.52 6.00508 19.6955 6.29225L20.813 8.227C20.9887 8.5205 21.0393 8.83108 20.9648 9.15875C20.8904 9.48625 20.7199 9.75642 20.4533 9.96925L18.9168 11.123C18.9526 11.2845 18.9722 11.4355 18.9755 11.576C18.9787 11.7163 18.9803 11.8577 18.9803 12C18.9803 12.1358 18.977 12.274 18.9705 12.4145C18.9642 12.5548 18.9412 12.7154 18.9015 12.8963L20.409 14.0308C20.6757 14.2436 20.8478 14.5138 20.9255 14.8413C21.003 15.1689 20.9539 15.4795 20.7783 15.773L19.6455 17.7172C19.47 18.0109 19.222 18.2135 18.9015 18.325C18.581 18.4365 18.2637 18.423 17.9495 18.2845L16.238 17.548C15.9905 17.7455 15.7379 17.9202 15.4803 18.072C15.2226 18.224 14.9585 18.3481 14.688 18.4443L14.4438 20.325C14.3899 20.6558 14.2389 20.9343 13.9908 21.1605C13.7428 21.3868 13.4483 21.5 13.1073 21.5H10.8918ZM10.9995 20H12.965L13.3245 17.3212C13.8348 17.1879 14.3012 16.9985 14.7235 16.753C15.146 16.5073 15.5534 16.1916 15.9458 15.8057L18.4303 16.85L19.415 15.15L17.2458 13.5155C17.3291 13.2565 17.3858 13.0026 17.4158 12.7537C17.4459 12.5051 17.461 12.2538 17.461 12C17.461 11.7397 17.4459 11.4884 17.4158 11.2463C17.3858 11.0039 17.3291 10.7564 17.2458 10.5038L19.434 8.85L18.4495 7.15L15.936 8.2095C15.6013 7.85183 15.2004 7.53583 14.7333 7.2615C14.2659 6.98717 13.7932 6.79292 13.315 6.67875L12.9995 4H11.015L10.684 6.66925C10.1738 6.78975 9.70276 6.97433 9.27076 7.223C8.83859 7.47183 8.42634 7.79233 8.03401 8.1845L5.54951 7.15L4.56501 8.85L6.72451 10.4595C6.64117 10.6968 6.58284 10.9437 6.54951 11.2C6.51617 11.4563 6.49951 11.7262 6.49951 12.0095C6.49951 12.2698 6.51617 12.525 6.54951 12.775C6.58284 13.025 6.63801 13.2718 6.71501 13.5155L4.56501 15.15L5.54951 16.85L8.02451 15.8C8.40401 16.1897 8.80976 16.5089 9.24176 16.7578C9.67392 17.0064 10.1515 17.1974 10.6745 17.3307L10.9995 20ZM12.011 15C12.843 15 13.551 14.708 14.135 14.124C14.719 13.54 15.011 12.832 15.011 12C15.011 11.168 14.719 10.46 14.135 9.876C13.551 9.292 12.843 9 12.011 9C11.1687 9 10.4581 9.292 9.87926 9.876C9.30042 10.46 9.01101 11.168 9.01101 12C9.01101 12.832 9.30042 13.54 9.87926 14.124C10.4581 14.708 11.1687 15 12.011 15Z" fill="#6D7882" />
</svg>