<svg width="24" height="24" viewBox="0 0 24 24" fill="none" xmlns="http://www.w3.org/2000/svg">
<path d="M20.7801 20.2197L18.8773 18.317C19.2703 17.7238 19.4998 17.0135 19.4998 16.25C19.4998 14.1823 17.8176 12.5 15.7499 12.5C13.6821 12.5 11.9999 14.1823 11.9999 16.25C11.9999 18.3177 13.6821 20 15.7499 20C16.5134 20 17.2236 19.7705 17.8168 19.3775L19.7196 21.2803C19.8658 21.4265 20.0578 21.5 20.2498 21.5C20.4418 21.5 20.6338 21.4265 20.7801 21.2803C21.0733 20.987 21.0733 20.513 20.7801 20.2197ZM17.2499 3.5H6.74996C4.68223 3.5 3 5.18225 3 7.25V8.75H20.9998V7.25C20.9998 5.18225 19.3176 3.5 17.2499 3.5ZM6.37496 7.25C5.75397 7.25 5.24998 6.746 5.24998 6.125C5.24998 5.504 5.75397 5 6.37496 5C6.99596 5 7.49995 5.504 7.49995 6.125C7.49995 6.746 6.99596 7.25 6.37496 7.25ZM9.37493 7.25C8.75394 7.25 8.24995 6.746 8.24995 6.125C8.24995 5.504 8.75394 5 9.37493 5C9.99593 5 10.4999 5.504 10.4999 6.125C10.4999 6.746 9.99593 7.25 9.37493 7.25ZM20.9983 16.3468C20.9983 16.3145 20.9998 16.2823 20.9998 16.25C20.9998 16.2823 20.9998 16.3145 20.9983 16.3468ZM3 10.25H20.9998V16.25C20.9998 13.355 18.6448 11 15.7499 11C12.8549 11 10.4999 13.355 10.4999 16.25C10.4999 17.7178 11.1052 19.0467 12.0794 20H6.74996C4.68223 20 3 18.3177 3 16.25V10.25Z" fill="#00BDDE"/>
</svg>
