<svg width="24" height="24" viewBox="0 0 24 24" fill="none" xmlns="http://www.w3.org/2000/svg">
<mask id="mask0_106_303" style="mask-type:alpha" maskUnits="userSpaceOnUse" x="0" y="0" width="24" height="24">
<rect width="24" height="24" fill="#D9D9D9"/>
</mask>
<g mask="url(#mask0_106_303)">
<path d="M10.75 15.25V12.75H14C14.2125 12.75 14.3906 12.6781 14.5343 12.5343C14.6781 12.3904 14.75 12.2122 14.75 11.9998C14.75 11.7871 14.6781 11.609 14.5343 11.4655C14.3906 11.3218 14.2125 11.25 14 11.25H10.75V8.75H14C14.2125 8.75 14.3906 8.67808 14.5343 8.53425C14.6781 8.39042 14.75 8.21225 14.75 7.99975C14.75 7.78708 14.6781 7.609 14.5343 7.4655C14.3906 7.32183 14.2125 7.25 14 7.25H10C9.7875 7.25 9.60942 7.32192 9.46575 7.46575C9.32192 7.60942 9.25 7.7875 9.25 8V16C9.25 16.2125 9.32192 16.3906 9.46575 16.5343C9.60942 16.6781 9.7875 16.75 10 16.75H14C14.2125 16.75 14.3906 16.6781 14.5343 16.5343C14.6781 16.3904 14.75 16.2122 14.75 15.9998C14.75 15.7871 14.6781 15.609 14.5343 15.4655C14.3906 15.3218 14.2125 15.25 14 15.25H10.75ZM5.30775 20.5C4.80258 20.5 4.375 20.325 4.025 19.975C3.675 19.625 3.5 19.1974 3.5 18.6923V5.30775C3.5 4.80258 3.675 4.375 4.025 4.025C4.375 3.675 4.80258 3.5 5.30775 3.5H18.6923C19.1974 3.5 19.625 3.675 19.975 4.025C20.325 4.375 20.5 4.80258 20.5 5.30775V18.6923C20.5 19.1974 20.325 19.625 19.975 19.975C19.625 20.325 19.1974 20.5 18.6923 20.5H5.30775Z" fill="#F07975"/>
</g>
</svg>
