<svg width="24" height="24" viewBox="0 0 24 24" fill="none" xmlns="http://www.w3.org/2000/svg">
<mask id="mask0_106_306" style="mask-type:alpha" maskUnits="userSpaceOnUse" x="0" y="0" width="24" height="24">
<rect width="24" height="24" fill="#D9D9D9"/>
</mask>
<g mask="url(#mask0_106_306)">
<path d="M5.30775 20.5C4.80258 20.5 4.375 20.325 4.025 19.975C3.675 19.625 3.5 19.1974 3.5 18.6923V5.30775C3.5 4.80258 3.675 4.375 4.025 4.025C4.375 3.675 4.80258 3.5 5.30775 3.5H18.6923C19.1974 3.5 19.625 3.675 19.975 4.025C20.325 4.375 20.5 4.80258 20.5 5.30775V18.6923C20.5 19.1974 20.325 19.625 19.975 19.975C19.625 20.325 19.1974 20.5 18.6923 20.5H5.30775ZM8 16.75H13C13.2125 16.75 13.3906 16.6781 13.5343 16.5343C13.6781 16.3904 13.75 16.2122 13.75 15.9998C13.75 15.7871 13.6781 15.609 13.5343 15.4655C13.3906 15.3218 13.2125 15.25 13 15.25H8C7.7875 15.25 7.60942 15.3219 7.46575 15.4658C7.32192 15.6096 7.25 15.7878 7.25 16.0003C7.25 16.2129 7.32192 16.391 7.46575 16.5345C7.60942 16.6782 7.7875 16.75 8 16.75ZM8 12.75H16C16.2125 12.75 16.3906 12.6781 16.5343 12.5343C16.6781 12.3904 16.75 12.2122 16.75 11.9998C16.75 11.7871 16.6781 11.609 16.5343 11.4655C16.3906 11.3218 16.2125 11.25 16 11.25H8C7.7875 11.25 7.60942 11.3219 7.46575 11.4658C7.32192 11.6096 7.25 11.7878 7.25 12.0003C7.25 12.2129 7.32192 12.391 7.46575 12.5345C7.60942 12.6782 7.7875 12.75 8 12.75ZM8 8.75H16C16.2125 8.75 16.3906 8.67808 16.5343 8.53425C16.6781 8.39042 16.75 8.21225 16.75 7.99975C16.75 7.78708 16.6781 7.609 16.5343 7.4655C16.3906 7.32183 16.2125 7.25 16 7.25H8C7.7875 7.25 7.60942 7.32192 7.46575 7.46575C7.32192 7.60958 7.25 7.78775 7.25 8.00025C7.25 8.21292 7.32192 8.391 7.46575 8.5345C7.60942 8.67817 7.7875 8.75 8 8.75Z" fill="#33AD70"/>
</g>
</svg>
