<svg width="24" height="24" viewBox="0 0 24 24" fill="none" xmlns="http://www.w3.org/2000/svg">
<mask id="mask0_106_307" style="mask-type:alpha" maskUnits="userSpaceOnUse" x="0" y="0" width="24" height="24">
<rect width="24" height="24" fill="#D9D9D9"/>
</mask>
<g mask="url(#mask0_106_307)">
<path d="M9.94635 10.1922L14.6539 14.9L9.7116 19.8422C9.3501 20.2037 8.92835 20.3845 8.44635 20.3845C7.96419 20.3845 7.54235 20.2037 7.18085 19.8422L7.05385 19.7152L6.68085 20.0885C6.51669 20.2525 6.32344 20.3813 6.1011 20.475C5.8786 20.5685 5.64685 20.6152 5.40585 20.6152H3.3541C3.14627 20.6152 3.00552 20.5233 2.93185 20.3395C2.85819 20.1555 2.89502 19.9897 3.04235 19.8422L5.1116 17.773L5.0041 17.6652C4.64244 17.3037 4.4616 16.882 4.4616 16.4C4.4616 15.918 4.64244 15.4962 5.0041 15.1347L9.94635 10.1922ZM11.0156 9.12298L15.9809 4.15773C16.3424 3.79623 16.7642 3.61548 17.2464 3.61548C17.7284 3.61548 18.1501 3.79623 18.5116 4.15773L20.6886 6.33473C21.0501 6.69623 21.2309 7.11798 21.2309 7.59998C21.2309 8.08198 21.0501 8.50373 20.6886 8.86523L15.7231 13.8307L11.0156 9.12298Z" fill="#457BE3"/>
</g>
</svg>
