<?xml version='1.0' encoding='utf-8'?>
<svg xmlns:ns0="http://www.w3.org/2000/svg" viewBox="0 0 24 24" xmlns="http://www.w3.org/2000/svg"><ns0:path d="M12.0002 21.123C11.8797 21.123 11.7676 21.1037 11.6637 21.0652C11.5599 21.0269 11.4612 20.9609 11.3675 20.8672L5.85398 15.3537C5.71565 15.2154 5.64648 15.0414 5.64648 14.8317C5.64648 14.6221 5.71565 14.448 5.85398 14.3095C6.00282 14.1608 6.17782 14.0875 6.37898 14.0895C6.58032 14.0913 6.75023 14.1615 6.88873 14.3L11.2502 18.6462V3.24048C11.2502 3.02765 11.3221 2.84939 11.4657 2.70573C11.6092 2.56223 11.7874 2.49048 12.0002 2.49048C12.2131 2.49048 12.3912 2.56223 12.5347 2.70573C12.6784 2.84939 12.7502 3.02765 12.7502 3.24048V18.6365L17.0867 14.3C17.2356 14.1513 17.4138 14.0753 17.6215 14.072C17.8292 14.0688 18.0073 14.1448 18.156 14.3C18.2945 14.4486 18.3637 14.6252 18.3637 14.8297C18.3637 15.0342 18.2945 15.2057 18.156 15.3442L12.633 20.8672C12.5393 20.9609 12.4406 21.0269 12.3367 21.0652C12.2329 21.1037 12.1207 21.123 12.0002 21.123Z" fill="#6D7882" />
</svg>