<?xml version='1.0' encoding='utf-8'?>
<svg xmlns:ns0="http://www.w3.org/2000/svg" viewBox="0 0 24 24" xmlns="http://www.w3.org/2000/svg"><ns0:path d="M4.30775 19.5C3.80908 19.5 3.38308 19.3234 3.02975 18.9703C2.67658 18.6169 2.5 18.1909 2.5 17.6923V6.30775C2.5 5.80908 2.67658 5.38308 3.02975 5.02975C3.38308 4.67658 3.80908 4.5 4.30775 4.5H19.6923C20.1909 4.5 20.6169 4.67658 20.9703 5.02975C21.3234 5.38308 21.5 5.80908 21.5 6.30775V17.6923C21.5 18.1909 21.3234 18.6169 20.9703 18.9703C20.6169 19.3234 20.1909 19.5 19.6923 19.5H4.30775ZM9.5 18H19.6923C19.7821 18 19.8558 17.9712 19.9135 17.9135C19.9712 17.8558 20 17.7821 20 17.6923V6.30775C20 6.21792 19.9712 6.14417 19.9135 6.0865C19.8558 6.02883 19.7821 6 19.6923 6H9.5V18ZM8 18V6H4.30775C4.21792 6 4.14417 6.02883 4.0865 6.0865C4.02883 6.14417 4 6.21792 4 6.30775V17.6923C4 17.7821 4.02883 17.8558 4.0865 17.9135C4.14417 17.9712 4.21792 18 4.30775 18H8Z" fill="#6D7882" />
</svg>