<?xml version='1.0' encoding='utf-8'?>
<svg xmlns:ns0="http://www.w3.org/2000/svg" viewBox="0 0 24 24" xmlns="http://www.w3.org/2000/svg"><ns0:path d="M6.30775 19.5C5.80258 19.5 5.375 19.325 5.025 18.975C4.675 18.625 4.5 18.1974 4.5 17.6922V15.7307C4.5 15.5179 4.57183 15.3397 4.7155 15.1962C4.859 15.0525 5.03717 14.9807 5.25 14.9807C5.46283 14.9807 5.641 15.0525 5.7845 15.1962C5.92817 15.3397 6 15.5179 6 15.7307V17.6922C6 17.7692 6.03208 17.8397 6.09625 17.9037C6.16025 17.9679 6.23075 18 6.30775 18H17.6923C17.7692 18 17.8398 17.9679 17.9038 17.9037C17.9679 17.8397 18 17.7692 18 17.6922V15.7307C18 15.5179 18.0718 15.3397 18.2155 15.1962C18.359 15.0525 18.5372 14.9807 18.75 14.9807C18.9628 14.9807 19.141 15.0525 19.2845 15.1962C19.4282 15.3397 19.5 15.5179 19.5 15.7307V17.6922C19.5 18.1974 19.325 18.625 18.975 18.975C18.625 19.325 18.1974 19.5 17.6923 19.5H6.30775Z" fill="#6D7882" />
<ns0:path d="M12.3413 4.55763C12.2374 4.51913 12.1253 4.49988 12.0048 4.49988C11.8843 4.49988 11.7721 4.51913 11.6683 4.55763C11.5644 4.59596 11.4657 4.66196 11.372 4.75563L8.2625 7.86513C8.10733 8.02029 8.03233 8.19596 8.0375 8.39213C8.04267 8.58829 8.11767 8.76396 8.2625 8.91913C8.41767 9.07413 8.5975 9.15263 8.802 9.15463C9.00633 9.15646 9.18292 9.08304 9.33175 8.93438L11.2548 7.01138L11.2548 14.6614C11.2548 14.8742 11.3266 15.0524 11.4703 15.1959C11.6138 15.3395 11.7919 15.4114 12.0048 15.4114C12.2176 15.4114 12.3958 15.3395 12.5393 15.1959C12.6829 15.0524 12.7548 14.8742 12.7548 14.6614L12.7548 7.01138L14.6778 8.93438C14.8329 9.08954 15.0112 9.16454 15.2125 9.15938C15.4137 9.15421 15.5918 9.07413 15.747 8.91913C15.8918 8.76396 15.9653 8.58671 15.9673 8.38738C15.9691 8.18804 15.8957 8.01396 15.747 7.86513L12.6375 4.75563C12.5438 4.66196 12.4451 4.59596 12.3413 4.55763Z" fill="#6D7882" />
</svg>